<svg width="207" height="201" viewBox="0 0 207 201" fill="none" xmlns="http://www.w3.org/2000/svg">
<path d="M102.11 12.8228L102.121 12.8072L102.131 12.7915C103.641 10.5092 106.531 8.25681 110.164 6.97269C113.754 5.70398 117.613 5.54055 120.986 6.8009L121.063 6.82956L121.14 6.8557C128.937 9.48122 134.042 18.3889 132.445 25.8445L132.417 25.9751L132.396 26.1069L127.05 59.7228L127.04 59.7849L127.032 59.8472C126.444 64.2607 127.628 68.4204 130.261 71.6725L130.338 71.7685L130.421 71.8605C133.075 74.8267 136.98 76.7133 141.24 76.7133H183.491C190.265 76.7133 195.611 79.426 198.637 83.6524C201.455 87.668 202.178 93.1173 200.055 99.1454L200.037 99.1954L200.021 99.2458L174.732 176.244L174.675 176.416L174.631 176.591C172.041 186.952 160.292 195.934 148.642 195.934H108.549C105.613 195.934 101.956 195.42 98.5694 194.408C95.0793 193.366 92.4742 191.974 91.1136 190.614L90.8887 190.389L90.6371 190.194L77.4786 180.017L77.4557 179.999L77.4326 179.982C73.6699 177.141 71.4011 172.564 71.4011 167.729V63.2837C71.4011 60.1736 72.3341 57.1305 74.0515 54.5511C74.0532 54.5486 74.0549 54.546 74.0566 54.5435L102.11 12.8228Z" fill="#4497FF" stroke="#333333" stroke-width="10"/>
<path d="M23.123 48.2344H33.7115C41.2162 48.2344 45.2213 49.7212 47.4412 51.8385C49.6026 53.8999 51.1221 57.5739 51.1221 64.617V168.035C51.1221 175.078 49.6026 178.752 47.4412 180.813C45.2213 182.93 41.2162 184.417 33.7115 184.417H23.123C15.6182 184.417 11.6132 182.93 9.39324 180.813C7.23184 178.752 5.7124 175.078 5.7124 168.035V64.617C5.7124 57.5739 7.23184 53.8999 9.39324 51.8385C11.6132 49.7212 15.6182 48.2344 23.123 48.2344Z" fill="#4497FF" stroke="#333333" stroke-width="10"/>
</svg>
