<svg width="821" height="123" viewBox="0 0 821 123" fill="none" xmlns="http://www.w3.org/2000/svg">
<path d="M96.3954 0.45459C107.635 0.45459 116.673 9.49242 116.673 20.7318V96.047C116.673 107.286 107.635 116.324 96.3954 116.324H35.5639L0.802981 81.5633V20.7318C0.802981 9.49242 9.84081 0.45459 21.0802 0.45459H96.3954ZM94.9471 12.0416H22.5285C19.8396 12.0416 17.2608 13.1097 15.3595 15.0111C13.4581 16.9124 12.3899 19.4912 12.3899 22.1801V75.7698H21.0802C32.3195 75.7698 41.3573 84.8077 41.3573 96.047V104.737H94.9471C97.636 104.737 100.215 103.669 102.116 101.768C104.017 99.8664 105.086 97.2876 105.086 94.5987V22.1801C105.086 19.4912 104.017 16.9124 102.116 15.0111C100.215 13.1097 97.636 12.0416 94.9471 12.0416ZM44.6017 28.0895C45.5287 28.0895 46.4556 28.2054 47.3246 28.4371C52.7705 29.9434 55.8411 35.5052 54.4506 41.009C54.1609 41.878 53.7554 42.747 53.234 43.5581L34.521 38.4598C34.521 37.4749 34.6369 36.49 34.8686 35.5052C36.0853 31.16 40.0828 28.0895 44.6017 28.0895ZM80.9268 38.1122C81.9117 38.1122 82.7807 38.1122 83.6498 38.4019C89.0377 39.9082 92.2241 45.4699 90.7757 50.8579C90.6019 51.7848 90.0805 52.5959 89.5591 53.5229L70.8462 48.4246C70.8462 47.4397 70.962 46.4548 71.1938 45.5279C71.7606 43.3855 73.0253 41.4932 74.788 40.1502C76.5508 38.8072 78.7109 38.09 80.9268 38.1122ZM31.3926 54.1022L84.287 68.6439C80.5307 72.9907 75.6233 76.1886 70.1297 77.8695C64.6361 79.5503 58.7795 79.6459 53.234 78.1452C47.7008 76.5971 42.7163 73.52 38.8529 69.2672C34.9895 65.0144 32.4038 59.7582 31.3926 54.1022Z" fill="#333333"/>
<mask id="path-2-outside-1_203_73" maskUnits="userSpaceOnUse" x="147.547" y="4.03857" width="673" height="119" fill="black">
<rect fill="white" x="147.547" y="4.03857" width="673" height="119"/>
<path d="M162.547 83.1678C164.653 80.0087 166.387 77.0664 167.75 74.3408C169.175 71.6153 170.538 68.4562 171.838 64.8634C176.236 67.4031 181.347 69.3853 187.17 70.81C192.992 72.2347 198.412 72.9471 203.43 72.9471C208.571 72.9471 212.195 72.5135 214.301 71.6463C216.407 70.7171 217.46 69.726 217.46 68.673C217.46 64.8944 211.699 63.0051 200.178 63.0051C187.541 63.0051 178.374 61.7043 172.675 59.1027C166.976 56.4391 164.126 52.165 164.126 46.2803C164.126 37.9179 167.595 31.7545 174.533 27.7901C181.471 23.8257 190.484 21.8435 201.571 21.8435C208.014 21.8435 214.611 22.6797 221.362 24.3522C228.176 25.9628 234.309 28.1927 239.76 31.0421C237.963 35.1304 236.074 40.1169 234.092 46.0016C233.72 47.2404 233.411 48.1696 233.163 48.789C230.004 46.2493 225.234 44.1432 218.854 42.4708C212.474 40.7363 206.837 39.8691 201.943 39.8691C196.058 39.8691 192.094 40.2718 190.05 41.077C188.006 41.8204 186.984 42.9353 186.984 44.422C186.984 45.9086 188.377 47.1165 191.165 48.0457C194.014 48.9129 198.103 49.3465 203.43 49.3465C216.562 49.3465 226.101 50.8641 232.048 53.8994C237.994 56.8727 240.968 61.4565 240.968 67.6509C240.968 76.323 237.809 82.5794 231.49 86.4199C225.172 90.1984 215.602 92.0877 202.779 92.0877C195.904 92.0877 188.904 91.3444 181.78 89.8577C174.657 88.3092 168.246 86.0792 162.547 83.1678ZM282.113 57.0585C276.415 56.6869 271.211 56.4081 266.504 56.2223L266.411 66.0713C266.411 69.4163 267.123 72.0489 268.548 73.9692C270.034 75.8275 272.636 76.7566 276.353 76.7566C277.777 76.7566 279.14 76.6328 280.441 76.385C280.193 78.6769 280.069 80.9998 280.069 83.3537C280.069 84.4686 280.131 87.0083 280.255 90.9727C277.53 91.4683 275.238 91.778 273.379 91.9019C271.521 92.0258 269.105 92.0877 266.132 92.0877C258.884 92.0877 253.743 90.3533 250.708 86.8844C247.735 83.3537 246.248 78.4601 246.248 72.2038L246.341 56.501C243.429 56.6249 240.394 56.8107 237.235 57.0585V40.6125C240.456 40.6125 243.182 39.5904 245.412 37.5462C247.642 35.5021 248.973 33.0553 249.407 30.2059H274.68C271.521 34.542 268.021 38.0108 264.181 40.6125H282.113V57.0585ZM291.748 34.9446C287.846 34.9446 284.934 33.9845 283.014 32.0642C281.156 30.144 280.227 27.6352 280.227 24.538C280.227 21.5028 281.156 18.9941 283.014 17.0119C284.934 15.0297 287.846 14.0386 291.748 14.0386C295.465 14.0386 298.314 15.0606 300.296 17.1048C302.279 19.087 303.27 21.5647 303.27 24.538C303.27 27.6352 302.31 30.144 300.389 32.0642C298.469 33.9845 295.589 34.9446 291.748 34.9446ZM280.97 91.1586C281.404 81.1856 281.62 72.9471 281.62 66.443C281.62 58.7 281.373 50.0279 280.877 40.4266H303.177C302.681 49.6562 302.434 58.3284 302.434 66.443C302.434 73.2568 302.65 81.4953 303.084 91.1586H280.97ZM322.1 65.7926C322.224 68.9517 323.215 71.4914 325.073 73.4117C326.993 75.3319 329.812 76.2921 333.528 76.2921C335.573 76.2921 337.4 75.9204 339.01 75.1771C340.621 74.3718 342.108 73.1949 343.47 71.6463C348.736 73.6904 354.899 75.4558 361.961 76.9425C359.916 81.7121 356.448 85.4288 351.554 88.0924C346.722 90.7559 340.435 92.0877 332.692 92.0877C322.348 92.0877 314.697 89.6719 309.742 84.8403C304.786 80.0087 302.309 73.6595 302.309 65.7926C302.309 57.9257 304.786 51.5765 309.742 46.7449C314.697 41.9133 322.348 39.4975 332.692 39.4975C340.435 39.4975 346.722 40.8293 351.554 43.4928C356.448 46.1564 359.916 49.873 361.961 54.6427C356.448 55.8196 350.284 57.585 343.47 59.9389C342.108 58.3903 340.621 57.2444 339.01 56.501C337.4 55.6958 335.573 55.2931 333.528 55.2931C329.812 55.2931 326.993 56.2533 325.073 58.1735C323.215 60.0938 322.224 62.6335 322.1 65.7926ZM426.168 40.3337L403.125 61.3326C410.992 72.4825 418.332 82.4245 425.146 91.1586H400.523L395.785 83.5395C392.688 78.3981 390.643 75.0532 389.652 73.5046L381.94 80.5662V91.1586H360.57C361.065 79.3893 361.313 67.4651 361.313 55.386C361.313 43.2451 361.065 31.0731 360.57 18.8702H381.94V58.2664C387.949 52.134 393.617 46.1564 398.944 40.3337H426.168ZM432.952 67.9297C433.448 70.6552 434.656 72.8852 436.576 74.6196C438.558 76.2921 441.346 77.1283 444.939 77.1283C447.54 77.1283 449.987 76.6328 452.279 75.6417C454.571 74.5886 456.398 73.1329 457.761 71.2746C461.911 73.3188 467.424 75.5178 474.3 77.8716C472.38 82.2077 468.88 85.6765 463.8 88.2782C458.783 90.8179 452.217 92.0877 444.102 92.0877C433.572 92.0877 425.767 89.6719 420.688 84.8403C415.67 79.9467 413.161 73.5356 413.161 65.6068C413.161 57.8638 415.67 51.5765 420.688 46.7449C425.705 41.9133 433.51 39.4975 444.102 39.4975C450.421 39.4975 455.903 40.5505 460.548 42.6566C465.194 44.7627 468.756 47.705 471.234 51.4836C473.711 55.2002 474.95 59.4743 474.95 64.3059C474.95 65.9165 474.888 67.1244 474.765 67.9297H432.952ZM445.403 53.5277C442.306 53.5277 439.766 54.1162 437.784 55.2931C435.802 56.4701 434.408 58.0806 433.603 60.1247H455.531C454.788 58.1425 453.58 56.563 451.907 55.386C450.235 54.1472 448.067 53.5277 445.403 53.5277ZM494.612 54.1781C497.214 44.8246 503.687 40.1479 514.032 40.1479C515.828 40.1479 517.562 40.2718 519.235 40.5195L516.262 61.3326C511.802 59.6602 508.147 58.8239 505.297 58.8239C501.767 58.8239 499.165 59.877 497.493 61.9831C495.82 64.0891 494.984 66.9076 494.984 70.4384V70.3455L494.891 76.4779C494.891 80.8759 495.015 85.7695 495.263 91.1586H473.056C473.551 82.2387 473.799 73.8143 473.799 65.8855C473.799 57.9567 473.551 49.4704 473.056 40.4266C477.144 40.6125 480.272 40.7054 482.44 40.7054C484.732 40.7054 487.86 40.6125 491.825 40.4266L494.612 54.1781ZM518.319 83.1678C520.426 80.0087 522.16 77.0664 523.523 74.3408C524.947 71.6153 526.31 68.4562 527.611 64.8634C532.009 67.4031 537.119 69.3853 542.942 70.81C548.765 72.2347 554.185 72.9471 559.202 72.9471C564.344 72.9471 567.967 72.5135 570.073 71.6463C572.18 70.7171 573.233 69.726 573.233 68.673C573.233 64.8944 567.472 63.0051 555.95 63.0051C543.314 63.0051 534.146 61.7043 528.447 59.1027C522.748 56.4391 519.899 52.165 519.899 46.2803C519.899 37.9179 523.368 31.7545 530.306 27.7901C537.243 23.8257 546.256 21.8435 557.344 21.8435C563.786 21.8435 570.383 22.6797 577.135 24.3522C583.949 25.9628 590.081 28.1927 595.532 31.0421C593.736 35.1304 591.847 40.1169 589.865 46.0016C589.493 47.2404 589.183 48.1696 588.935 48.789C585.776 46.2493 581.007 44.1432 574.626 42.4708C568.246 40.7363 562.609 39.8691 557.716 39.8691C551.831 39.8691 547.867 40.2718 545.822 41.077C543.778 41.8204 542.756 42.9353 542.756 44.422C542.756 45.9086 544.15 47.1165 546.937 48.0457C549.787 48.9129 553.875 49.3465 559.202 49.3465C572.334 49.3465 581.874 50.8641 587.82 53.8994C593.767 56.8727 596.74 61.4565 596.74 67.6509C596.74 76.323 593.581 82.5794 587.263 86.4199C580.945 90.1984 571.374 92.0877 558.552 92.0877C551.676 92.0877 544.677 91.3444 537.553 89.8577C530.429 88.3092 524.018 86.0792 518.319 83.1678ZM636.399 39.4975C640.426 39.4975 644.049 40.6434 647.27 42.9353C650.491 45.2273 653 48.3554 654.797 52.3198C656.593 56.2223 657.491 60.5274 657.491 65.2351C657.491 69.8809 656.593 74.2789 654.797 78.4291C653 82.5174 650.461 85.8314 647.177 88.3711C643.956 90.8489 640.271 92.0877 636.121 92.0877C631.289 92.0877 627.139 91.0966 623.67 89.1144C620.263 87.0703 617.723 83.9421 616.051 79.7299C616.051 83.2607 616.175 88.9286 616.422 96.7335C616.67 104.291 616.794 109.618 616.794 112.715H595.795C596.167 101.193 596.353 89.1454 596.353 76.5708C596.353 63.9962 596.167 51.9482 595.795 40.4266H613.635L616.329 52.0411C618.064 47.705 620.666 44.5459 624.134 42.5637C627.603 40.5195 631.692 39.4975 636.399 39.4975ZM626.457 75.3629C629.245 75.3629 631.568 74.4957 633.426 72.7613C635.346 70.9649 636.306 68.642 636.306 65.7926C636.306 62.6335 635.439 60.0628 633.705 58.0806C631.97 56.0984 629.616 55.1073 626.643 55.1073C623.236 55.1073 620.666 55.9435 618.931 57.616C617.197 59.2266 616.329 61.9521 616.329 65.7926C616.329 67.9606 616.887 69.788 618.002 71.2746C619.117 72.6993 620.449 73.7524 621.997 74.4338C623.546 75.0532 625.033 75.3629 626.457 75.3629ZM715.227 75.7346C715.227 77.8407 715.474 79.3273 715.97 80.1945C716.465 81.0617 717.457 81.6812 718.943 82.0528L718.572 90.7869C716.589 91.0966 714.855 91.3134 713.368 91.4373C711.944 91.5612 710.023 91.6231 707.607 91.6231C702.28 91.6231 698.75 90.4462 697.015 88.0924C695.281 85.6765 694.413 82.6103 694.413 78.8937V76.5708C692.617 81.6502 689.984 85.4288 686.516 87.9065C683.109 90.3843 678.742 91.6231 673.415 91.6231C667.22 91.6231 662.543 90.3843 659.384 87.9065C656.287 85.4288 654.738 81.7431 654.738 76.8496C654.738 72.8232 656.07 69.6641 658.734 67.3722C661.397 65.0802 665.517 63.5007 671.092 62.6335C666.384 59.2885 661.676 56.3771 656.968 53.8994C660.685 49.1917 664.928 45.6299 669.698 43.2141C674.468 40.7363 680.259 39.4975 687.073 39.4975C696.612 39.4975 703.674 41.5726 708.258 45.7228C712.904 49.8111 715.227 56.1294 715.227 64.6776V75.7346ZM689.024 55.8506C685.865 55.8506 683.078 56.3771 680.662 57.4302C678.246 58.4832 676.078 60.0628 674.158 62.1689C677.874 61.7353 682.52 61.5185 688.095 61.5185C690.387 61.5185 691.998 61.2397 692.927 60.6822C693.856 60.1247 694.321 59.4124 694.321 58.5452C694.321 57.8018 693.856 57.1824 692.927 56.6869C691.998 56.1294 690.697 55.8506 689.024 55.8506ZM679.268 76.4779C682.737 76.4779 685.865 75.8275 688.653 74.5267C691.44 73.1639 693.36 71.3985 694.413 69.2305V66.8147C692.927 67.558 691.285 68.1465 689.489 68.5801C687.693 68.9517 685.525 69.3234 682.985 69.6951L679.64 70.2525C676.171 70.9339 674.437 72.1109 674.437 73.7833C674.437 75.5797 676.047 76.4779 679.268 76.4779ZM788.185 91.1586C788.681 83.0439 788.928 74.6506 788.928 65.9784C788.928 63.191 788.216 61.0229 786.791 59.4743C785.428 57.8638 783.601 57.0585 781.309 57.0585C779.203 57.0585 777.376 57.9877 775.827 59.846C774.341 61.7043 773.597 64.3989 773.597 67.9297V67.8367C773.597 78.8008 773.752 86.5747 774.062 91.1586H753.156C753.527 82.0528 753.713 73.6595 753.713 65.9784C753.713 63.2529 753.032 61.0849 751.669 59.4743C750.368 57.8638 748.696 57.0585 746.652 57.0585C744.484 57.0585 742.656 57.9877 741.17 59.846C739.745 61.6424 738.909 64.1201 738.661 67.2792C738.537 71.987 738.475 75.3319 738.475 77.3141C738.475 81.5263 738.599 86.1411 738.847 91.1586H716.64C717.136 82.2387 717.383 73.8143 717.383 65.8855C717.383 57.9567 717.136 49.4704 716.64 40.4266C720.728 40.6125 723.856 40.7054 726.024 40.7054C728.316 40.7054 731.444 40.6125 735.409 40.4266L738.196 54.1781C739.621 49.1607 741.882 45.475 744.979 43.1212C748.076 40.7054 751.638 39.4975 755.664 39.4975C760.496 39.4975 764.43 40.8293 767.465 43.4928C770.562 46.1564 772.482 49.6253 773.226 53.8994C774.65 49.5014 777.035 46.0016 780.38 43.3999C783.725 40.7983 787.535 39.4975 791.809 39.4975C797.384 39.4975 801.751 41.3867 804.91 45.1653C808.069 48.8819 809.648 53.9923 809.648 60.4964V75.9204C809.648 82.92 809.71 87.9994 809.834 91.1586H788.185Z"/>
</mask>
<path d="M162.547 83.1678C164.653 80.0087 166.387 77.0664 167.75 74.3408C169.175 71.6153 170.538 68.4562 171.838 64.8634C176.236 67.4031 181.347 69.3853 187.17 70.81C192.992 72.2347 198.412 72.9471 203.43 72.9471C208.571 72.9471 212.195 72.5135 214.301 71.6463C216.407 70.7171 217.46 69.726 217.46 68.673C217.46 64.8944 211.699 63.0051 200.178 63.0051C187.541 63.0051 178.374 61.7043 172.675 59.1027C166.976 56.4391 164.126 52.165 164.126 46.2803C164.126 37.9179 167.595 31.7545 174.533 27.7901C181.471 23.8257 190.484 21.8435 201.571 21.8435C208.014 21.8435 214.611 22.6797 221.362 24.3522C228.176 25.9628 234.309 28.1927 239.76 31.0421C237.963 35.1304 236.074 40.1169 234.092 46.0016C233.72 47.2404 233.411 48.1696 233.163 48.789C230.004 46.2493 225.234 44.1432 218.854 42.4708C212.474 40.7363 206.837 39.8691 201.943 39.8691C196.058 39.8691 192.094 40.2718 190.05 41.077C188.006 41.8204 186.984 42.9353 186.984 44.422C186.984 45.9086 188.377 47.1165 191.165 48.0457C194.014 48.9129 198.103 49.3465 203.43 49.3465C216.562 49.3465 226.101 50.8641 232.048 53.8994C237.994 56.8727 240.968 61.4565 240.968 67.6509C240.968 76.323 237.809 82.5794 231.49 86.4199C225.172 90.1984 215.602 92.0877 202.779 92.0877C195.904 92.0877 188.904 91.3444 181.78 89.8577C174.657 88.3092 168.246 86.0792 162.547 83.1678ZM282.113 57.0585C276.415 56.6869 271.211 56.4081 266.504 56.2223L266.411 66.0713C266.411 69.4163 267.123 72.0489 268.548 73.9692C270.034 75.8275 272.636 76.7566 276.353 76.7566C277.777 76.7566 279.14 76.6328 280.441 76.385C280.193 78.6769 280.069 80.9998 280.069 83.3537C280.069 84.4686 280.131 87.0083 280.255 90.9727C277.53 91.4683 275.238 91.778 273.379 91.9019C271.521 92.0258 269.105 92.0877 266.132 92.0877C258.884 92.0877 253.743 90.3533 250.708 86.8844C247.735 83.3537 246.248 78.4601 246.248 72.2038L246.341 56.501C243.429 56.6249 240.394 56.8107 237.235 57.0585V40.6125C240.456 40.6125 243.182 39.5904 245.412 37.5462C247.642 35.5021 248.973 33.0553 249.407 30.2059H274.68C271.521 34.542 268.021 38.0108 264.181 40.6125H282.113V57.0585ZM291.748 34.9446C287.846 34.9446 284.934 33.9845 283.014 32.0642C281.156 30.144 280.227 27.6352 280.227 24.538C280.227 21.5028 281.156 18.9941 283.014 17.0119C284.934 15.0297 287.846 14.0386 291.748 14.0386C295.465 14.0386 298.314 15.0606 300.296 17.1048C302.279 19.087 303.27 21.5647 303.27 24.538C303.27 27.6352 302.31 30.144 300.389 32.0642C298.469 33.9845 295.589 34.9446 291.748 34.9446ZM280.97 91.1586C281.404 81.1856 281.62 72.9471 281.62 66.443C281.62 58.7 281.373 50.0279 280.877 40.4266H303.177C302.681 49.6562 302.434 58.3284 302.434 66.443C302.434 73.2568 302.65 81.4953 303.084 91.1586H280.97ZM322.1 65.7926C322.224 68.9517 323.215 71.4914 325.073 73.4117C326.993 75.3319 329.812 76.2921 333.528 76.2921C335.573 76.2921 337.4 75.9204 339.01 75.1771C340.621 74.3718 342.108 73.1949 343.47 71.6463C348.736 73.6904 354.899 75.4558 361.961 76.9425C359.916 81.7121 356.448 85.4288 351.554 88.0924C346.722 90.7559 340.435 92.0877 332.692 92.0877C322.348 92.0877 314.697 89.6719 309.742 84.8403C304.786 80.0087 302.309 73.6595 302.309 65.7926C302.309 57.9257 304.786 51.5765 309.742 46.7449C314.697 41.9133 322.348 39.4975 332.692 39.4975C340.435 39.4975 346.722 40.8293 351.554 43.4928C356.448 46.1564 359.916 49.873 361.961 54.6427C356.448 55.8196 350.284 57.585 343.47 59.9389C342.108 58.3903 340.621 57.2444 339.01 56.501C337.4 55.6958 335.573 55.2931 333.528 55.2931C329.812 55.2931 326.993 56.2533 325.073 58.1735C323.215 60.0938 322.224 62.6335 322.1 65.7926ZM426.168 40.3337L403.125 61.3326C410.992 72.4825 418.332 82.4245 425.146 91.1586H400.523L395.785 83.5395C392.688 78.3981 390.643 75.0532 389.652 73.5046L381.94 80.5662V91.1586H360.57C361.065 79.3893 361.313 67.4651 361.313 55.386C361.313 43.2451 361.065 31.0731 360.57 18.8702H381.94V58.2664C387.949 52.134 393.617 46.1564 398.944 40.3337H426.168ZM432.952 67.9297C433.448 70.6552 434.656 72.8852 436.576 74.6196C438.558 76.2921 441.346 77.1283 444.939 77.1283C447.54 77.1283 449.987 76.6328 452.279 75.6417C454.571 74.5886 456.398 73.1329 457.761 71.2746C461.911 73.3188 467.424 75.5178 474.3 77.8716C472.38 82.2077 468.88 85.6765 463.8 88.2782C458.783 90.8179 452.217 92.0877 444.102 92.0877C433.572 92.0877 425.767 89.6719 420.688 84.8403C415.67 79.9467 413.161 73.5356 413.161 65.6068C413.161 57.8638 415.67 51.5765 420.688 46.7449C425.705 41.9133 433.51 39.4975 444.102 39.4975C450.421 39.4975 455.903 40.5505 460.548 42.6566C465.194 44.7627 468.756 47.705 471.234 51.4836C473.711 55.2002 474.95 59.4743 474.95 64.3059C474.95 65.9165 474.888 67.1244 474.765 67.9297H432.952ZM445.403 53.5277C442.306 53.5277 439.766 54.1162 437.784 55.2931C435.802 56.4701 434.408 58.0806 433.603 60.1247H455.531C454.788 58.1425 453.58 56.563 451.907 55.386C450.235 54.1472 448.067 53.5277 445.403 53.5277ZM494.612 54.1781C497.214 44.8246 503.687 40.1479 514.032 40.1479C515.828 40.1479 517.562 40.2718 519.235 40.5195L516.262 61.3326C511.802 59.6602 508.147 58.8239 505.297 58.8239C501.767 58.8239 499.165 59.877 497.493 61.9831C495.82 64.0891 494.984 66.9076 494.984 70.4384V70.3455L494.891 76.4779C494.891 80.8759 495.015 85.7695 495.263 91.1586H473.056C473.551 82.2387 473.799 73.8143 473.799 65.8855C473.799 57.9567 473.551 49.4704 473.056 40.4266C477.144 40.6125 480.272 40.7054 482.44 40.7054C484.732 40.7054 487.86 40.6125 491.825 40.4266L494.612 54.1781ZM518.319 83.1678C520.426 80.0087 522.16 77.0664 523.523 74.3408C524.947 71.6153 526.31 68.4562 527.611 64.8634C532.009 67.4031 537.119 69.3853 542.942 70.81C548.765 72.2347 554.185 72.9471 559.202 72.9471C564.344 72.9471 567.967 72.5135 570.073 71.6463C572.18 70.7171 573.233 69.726 573.233 68.673C573.233 64.8944 567.472 63.0051 555.95 63.0051C543.314 63.0051 534.146 61.7043 528.447 59.1027C522.748 56.4391 519.899 52.165 519.899 46.2803C519.899 37.9179 523.368 31.7545 530.306 27.7901C537.243 23.8257 546.256 21.8435 557.344 21.8435C563.786 21.8435 570.383 22.6797 577.135 24.3522C583.949 25.9628 590.081 28.1927 595.532 31.0421C593.736 35.1304 591.847 40.1169 589.865 46.0016C589.493 47.2404 589.183 48.1696 588.935 48.789C585.776 46.2493 581.007 44.1432 574.626 42.4708C568.246 40.7363 562.609 39.8691 557.716 39.8691C551.831 39.8691 547.867 40.2718 545.822 41.077C543.778 41.8204 542.756 42.9353 542.756 44.422C542.756 45.9086 544.15 47.1165 546.937 48.0457C549.787 48.9129 553.875 49.3465 559.202 49.3465C572.334 49.3465 581.874 50.8641 587.82 53.8994C593.767 56.8727 596.74 61.4565 596.74 67.6509C596.74 76.323 593.581 82.5794 587.263 86.4199C580.945 90.1984 571.374 92.0877 558.552 92.0877C551.676 92.0877 544.677 91.3444 537.553 89.8577C530.429 88.3092 524.018 86.0792 518.319 83.1678ZM636.399 39.4975C640.426 39.4975 644.049 40.6434 647.27 42.9353C650.491 45.2273 653 48.3554 654.797 52.3198C656.593 56.2223 657.491 60.5274 657.491 65.2351C657.491 69.8809 656.593 74.2789 654.797 78.4291C653 82.5174 650.461 85.8314 647.177 88.3711C643.956 90.8489 640.271 92.0877 636.121 92.0877C631.289 92.0877 627.139 91.0966 623.67 89.1144C620.263 87.0703 617.723 83.9421 616.051 79.7299C616.051 83.2607 616.175 88.9286 616.422 96.7335C616.67 104.291 616.794 109.618 616.794 112.715H595.795C596.167 101.193 596.353 89.1454 596.353 76.5708C596.353 63.9962 596.167 51.9482 595.795 40.4266H613.635L616.329 52.0411C618.064 47.705 620.666 44.5459 624.134 42.5637C627.603 40.5195 631.692 39.4975 636.399 39.4975ZM626.457 75.3629C629.245 75.3629 631.568 74.4957 633.426 72.7613C635.346 70.9649 636.306 68.642 636.306 65.7926C636.306 62.6335 635.439 60.0628 633.705 58.0806C631.97 56.0984 629.616 55.1073 626.643 55.1073C623.236 55.1073 620.666 55.9435 618.931 57.616C617.197 59.2266 616.329 61.9521 616.329 65.7926C616.329 67.9606 616.887 69.788 618.002 71.2746C619.117 72.6993 620.449 73.7524 621.997 74.4338C623.546 75.0532 625.033 75.3629 626.457 75.3629ZM715.227 75.7346C715.227 77.8407 715.474 79.3273 715.97 80.1945C716.465 81.0617 717.457 81.6812 718.943 82.0528L718.572 90.7869C716.589 91.0966 714.855 91.3134 713.368 91.4373C711.944 91.5612 710.023 91.6231 707.607 91.6231C702.28 91.6231 698.75 90.4462 697.015 88.0924C695.281 85.6765 694.413 82.6103 694.413 78.8937V76.5708C692.617 81.6502 689.984 85.4288 686.516 87.9065C683.109 90.3843 678.742 91.6231 673.415 91.6231C667.22 91.6231 662.543 90.3843 659.384 87.9065C656.287 85.4288 654.738 81.7431 654.738 76.8496C654.738 72.8232 656.07 69.6641 658.734 67.3722C661.397 65.0802 665.517 63.5007 671.092 62.6335C666.384 59.2885 661.676 56.3771 656.968 53.8994C660.685 49.1917 664.928 45.6299 669.698 43.2141C674.468 40.7363 680.259 39.4975 687.073 39.4975C696.612 39.4975 703.674 41.5726 708.258 45.7228C712.904 49.8111 715.227 56.1294 715.227 64.6776V75.7346ZM689.024 55.8506C685.865 55.8506 683.078 56.3771 680.662 57.4302C678.246 58.4832 676.078 60.0628 674.158 62.1689C677.874 61.7353 682.52 61.5185 688.095 61.5185C690.387 61.5185 691.998 61.2397 692.927 60.6822C693.856 60.1247 694.321 59.4124 694.321 58.5452C694.321 57.8018 693.856 57.1824 692.927 56.6869C691.998 56.1294 690.697 55.8506 689.024 55.8506ZM679.268 76.4779C682.737 76.4779 685.865 75.8275 688.653 74.5267C691.44 73.1639 693.36 71.3985 694.413 69.2305V66.8147C692.927 67.558 691.285 68.1465 689.489 68.5801C687.693 68.9517 685.525 69.3234 682.985 69.6951L679.64 70.2525C676.171 70.9339 674.437 72.1109 674.437 73.7833C674.437 75.5797 676.047 76.4779 679.268 76.4779ZM788.185 91.1586C788.681 83.0439 788.928 74.6506 788.928 65.9784C788.928 63.191 788.216 61.0229 786.791 59.4743C785.428 57.8638 783.601 57.0585 781.309 57.0585C779.203 57.0585 777.376 57.9877 775.827 59.846C774.341 61.7043 773.597 64.3989 773.597 67.9297V67.8367C773.597 78.8008 773.752 86.5747 774.062 91.1586H753.156C753.527 82.0528 753.713 73.6595 753.713 65.9784C753.713 63.2529 753.032 61.0849 751.669 59.4743C750.368 57.8638 748.696 57.0585 746.652 57.0585C744.484 57.0585 742.656 57.9877 741.17 59.846C739.745 61.6424 738.909 64.1201 738.661 67.2792C738.537 71.987 738.475 75.3319 738.475 77.3141C738.475 81.5263 738.599 86.1411 738.847 91.1586H716.64C717.136 82.2387 717.383 73.8143 717.383 65.8855C717.383 57.9567 717.136 49.4704 716.64 40.4266C720.728 40.6125 723.856 40.7054 726.024 40.7054C728.316 40.7054 731.444 40.6125 735.409 40.4266L738.196 54.1781C739.621 49.1607 741.882 45.475 744.979 43.1212C748.076 40.7054 751.638 39.4975 755.664 39.4975C760.496 39.4975 764.43 40.8293 767.465 43.4928C770.562 46.1564 772.482 49.6253 773.226 53.8994C774.65 49.5014 777.035 46.0016 780.38 43.3999C783.725 40.7983 787.535 39.4975 791.809 39.4975C797.384 39.4975 801.751 41.3867 804.91 45.1653C808.069 48.8819 809.648 53.9923 809.648 60.4964V75.9204C809.648 82.92 809.71 87.9994 809.834 91.1586H788.185Z" stroke="#333333" stroke-width="20" mask="url(#path-2-outside-1_203_73)"/>
<rect x="499.648" y="65.6377" width="15.9949" height="20.6294" fill="#333333"/>
<rect x="329.347" y="63.377" width="10.8674" height="5.34766" fill="#333333"/>
</svg>
