<svg width="117" height="117" viewBox="0 0 117 117" fill="none" xmlns="http://www.w3.org/2000/svg">
<path d="M96.3302 0.897461C107.57 0.897461 116.607 9.93529 116.607 21.1746V96.4899C116.607 107.729 107.57 116.767 96.3302 116.767H35.4987L0.737796 82.0062V21.1746C0.737796 9.93529 9.77562 0.897461 21.015 0.897461H96.3302ZM94.8819 12.4844H22.4634C19.7744 12.4844 17.1956 13.5526 15.2943 15.4539C13.3929 17.3553 12.3248 19.9341 12.3248 22.623V76.2127H21.015C32.2543 76.2127 41.2922 85.2506 41.2922 96.4899V105.18H94.8819C97.5708 105.18 100.15 104.112 102.051 102.211C103.952 100.309 105.02 97.7305 105.02 95.0415V22.623C105.02 19.9341 103.952 17.3553 102.051 15.4539C100.15 13.5526 97.5708 12.4844 94.8819 12.4844ZM44.5365 28.5324C45.4635 28.5324 46.3904 28.6482 47.2594 28.88C52.7053 30.3863 55.7759 35.948 54.3854 41.4518C54.0958 42.3209 53.6902 43.1899 53.1688 44.001L34.4559 38.9027C34.4559 37.9178 34.5717 36.9329 34.8035 35.948C36.0201 31.6029 40.0176 28.5324 44.5365 28.5324ZM80.8616 38.5551C81.8465 38.5551 82.7156 38.5551 83.5846 38.8448C88.9725 40.3511 92.1589 45.9128 90.7106 51.3007C90.5368 52.2277 90.0153 53.0388 89.4939 53.9657L70.781 48.8675C70.781 47.8826 70.8969 46.8977 71.1286 45.9707C71.6954 43.8284 72.9601 41.9361 74.7229 40.5931C76.4856 39.25 78.6457 38.5329 80.8616 38.5551ZM31.3274 54.5451L84.2219 69.0867C80.4655 73.4336 75.5581 76.6314 70.0645 78.3123C64.5709 79.9932 58.7143 80.0888 53.1688 78.588C47.6356 77.04 42.6512 73.9629 38.7877 69.7101C34.9243 65.4572 32.3386 60.2011 31.3274 54.5451Z" fill="#333333"/>
</svg>
