<svg width="231" height="211" viewBox="0 0 231 211" fill="none" xmlns="http://www.w3.org/2000/svg">
<path d="M216.414 102.087L186.639 130.058C182.55 133.892 179.824 141.613 180.736 147.166L185.739 180.328C188.987 201.548 175.608 210.611 156.042 200.552L122.858 183.376C117.302 180.513 108.271 180.58 102.929 183.643L74.2044 199.851C51.5188 212.623 37.7943 202.696 43.6179 177.688L51.7561 142.752C53.2498 136.387 50.2816 127.624 45.3328 123.248L17.7611 98.9104C-1.9556 81.4827 3.33903 65.8874 29.6385 64.1624L62.9415 62.0481C69.1663 61.6515 76.6717 56.9379 79.499 51.5723L96.4628 19.3789C106.475 0.56256 122.906 0.794473 132.985 19.9534L148.7 49.8748C151.397 54.913 158.142 59.8378 163.835 60.7273L205.17 67.6513C227.476 71.5086 232.536 86.9744 216.414 102.087Z" fill="#FCD91F" stroke="#333333" stroke-width="10"/>
</svg>
